<svg width="1323" height="807" viewBox="0 0 1323 807" fill="none" xmlns="http://www.w3.org/2000/svg">
<path d="M928.885 0L662.99 283.108L394 0V133.256L663.071 418.385L928.885 134.148V0Z" fill="#16D4E8"></path>
<path d="M929.113 214.581V441.875H726.268L929.113 214.581Z" fill="white"></path>
<path d="M394 214.581V441.875H596.845L394 214.581Z" fill="white"></path>
<path d="M121.326 633.939L78.7296 753.552H47.5804L4.98387 633.939H35.0429L62.532 722.792H63.778L91.3451 633.939H121.326ZM176.213 755.966C168.633 755.966 161.806 754.616 155.732 751.916C149.71 749.165 144.934 745.116 141.403 739.768C137.925 734.421 136.186 727.828 136.186 719.988C136.186 713.239 137.432 707.659 139.924 703.246C142.416 698.833 145.816 695.303 150.125 692.655C154.434 690.007 159.288 688.009 164.687 686.659C170.139 685.257 175.771 684.245 181.586 683.622C188.594 682.895 194.279 682.246 198.64 681.675C203.001 681.052 206.168 680.117 208.141 678.872C210.165 677.574 211.178 675.575 211.178 672.875V672.408C211.178 666.542 209.438 661.999 205.96 658.78C202.482 655.562 197.472 653.952 190.931 653.952C184.026 653.952 178.549 655.458 174.499 658.469C170.502 661.48 167.802 665.036 166.401 669.137L140.08 665.399C142.156 658.131 145.583 652.057 150.359 647.177C155.135 642.245 160.975 638.559 167.88 636.119C174.785 633.627 182.417 632.381 190.775 632.381C196.538 632.381 202.274 633.056 207.985 634.406C213.696 635.756 218.913 637.988 223.637 641.103C228.362 644.166 232.151 648.345 235.007 653.641C237.914 658.936 239.368 665.555 239.368 673.498V753.552H212.268V737.121H211.333C209.62 740.443 207.206 743.558 204.091 746.465C201.028 749.321 197.16 751.631 192.488 753.396C187.868 755.109 182.442 755.966 176.213 755.966ZM183.533 735.252C189.191 735.252 194.097 734.135 198.251 731.903C202.404 729.619 205.597 726.608 207.829 722.87C210.113 719.132 211.256 715.057 211.256 710.644V696.549C210.373 697.276 208.867 697.95 206.739 698.573C204.662 699.196 202.326 699.741 199.73 700.209C197.135 700.676 194.565 701.091 192.021 701.455C189.477 701.818 187.271 702.13 185.402 702.389C181.197 702.96 177.433 703.895 174.11 705.193C170.787 706.49 168.166 708.308 166.245 710.644C164.324 712.928 163.364 715.887 163.364 719.521C163.364 724.713 165.259 728.632 169.048 731.28C172.838 733.928 177.666 735.252 183.533 735.252ZM272.099 753.552V633.939H299.433V653.874H300.679C302.859 646.97 306.597 641.648 311.892 637.91C317.24 634.12 323.34 632.226 330.193 632.226C331.75 632.226 333.489 632.303 335.41 632.459C337.383 632.563 339.018 632.745 340.316 633.004V658.936C339.122 658.521 337.227 658.157 334.631 657.846C332.087 657.482 329.621 657.301 327.233 657.301C322.094 657.301 317.473 658.417 313.372 660.649C309.323 662.83 306.13 665.867 303.794 669.76C301.457 673.654 300.289 678.145 300.289 683.232V753.552H272.099ZM363.43 753.552V633.939H391.62V753.552H363.43ZM377.603 616.962C373.138 616.962 369.297 615.483 366.078 612.524C362.859 609.513 361.25 605.904 361.25 601.699C361.25 597.442 362.859 593.834 366.078 590.875C369.297 587.864 373.138 586.358 377.603 586.358C382.12 586.358 385.962 587.864 389.128 590.875C392.347 593.834 393.957 597.442 393.957 601.699C393.957 605.904 392.347 609.513 389.128 612.524C385.962 615.483 382.12 616.962 377.603 616.962ZM459.414 755.966C451.835 755.966 445.008 754.616 438.934 751.916C432.911 749.165 428.135 745.116 424.605 739.768C421.127 734.421 419.388 727.828 419.388 719.988C419.388 713.239 420.633 707.659 423.125 703.246C425.617 698.833 429.018 695.303 433.327 692.655C437.636 690.007 442.49 688.009 447.889 686.659C453.34 685.257 458.973 684.245 464.787 683.622C471.796 682.895 477.481 682.246 481.842 681.675C486.203 681.052 489.369 680.117 491.342 678.872C493.367 677.574 494.379 675.575 494.379 672.875V672.408C494.379 666.542 492.64 661.999 489.162 658.78C485.683 655.562 480.674 653.952 474.132 653.952C467.227 653.952 461.75 655.458 457.701 658.469C453.704 661.48 451.004 665.036 449.602 669.137L423.281 665.399C425.358 658.131 428.784 652.057 433.56 647.177C438.337 642.245 444.177 638.559 451.082 636.119C457.987 633.627 465.618 632.381 473.976 632.381C479.739 632.381 485.476 633.056 491.186 634.406C496.897 635.756 502.115 637.988 506.839 641.103C511.563 644.166 515.353 648.345 518.208 653.641C521.116 658.936 522.569 665.555 522.569 673.498V753.552H495.469V737.121H494.535C492.822 740.443 490.408 743.558 487.293 746.465C484.23 749.321 480.362 751.631 475.69 753.396C471.069 755.109 465.644 755.966 459.414 755.966ZM466.734 735.252C472.393 735.252 477.299 734.135 481.452 731.903C485.606 729.619 488.798 726.608 491.031 722.87C493.315 719.132 494.457 715.057 494.457 710.644V696.549C493.575 697.276 492.069 697.95 489.94 698.573C487.864 699.196 485.528 699.741 482.932 700.209C480.336 700.676 477.766 701.091 475.222 701.455C472.679 701.818 470.472 702.13 468.603 702.389C464.398 702.96 460.634 703.895 457.312 705.193C453.989 706.49 451.367 708.308 449.446 710.644C447.526 712.928 446.565 715.887 446.565 719.521C446.565 724.713 448.46 728.632 452.25 731.28C456.04 733.928 460.868 735.252 466.734 735.252ZM583.491 683.466V753.552H555.301V633.939H582.245V654.264H583.647C586.398 647.567 590.785 642.245 596.807 638.3C602.881 634.354 610.383 632.381 619.312 632.381C627.567 632.381 634.757 634.146 640.883 637.677C647.061 641.207 651.837 646.321 655.212 653.018C658.638 659.715 660.326 667.84 660.274 677.392V753.552H632.084V681.753C632.084 673.758 630.007 667.502 625.854 662.985C621.752 658.469 616.068 656.21 608.8 656.21C603.868 656.21 599.481 657.301 595.639 659.481C591.849 661.61 588.864 664.699 586.684 668.748C584.555 672.797 583.491 677.703 583.491 683.466ZM753.045 633.939V655.743H684.284V633.939H753.045ZM701.26 605.282H729.45V717.574C729.45 721.364 730.021 724.272 731.163 726.296C732.357 728.269 733.915 729.619 735.835 730.346C737.756 731.072 739.885 731.436 742.221 731.436C743.986 731.436 745.596 731.306 747.049 731.046C748.555 730.787 749.697 730.553 750.476 730.346L755.226 752.384C753.72 752.903 751.566 753.474 748.762 754.097C746.011 754.72 742.636 755.083 738.639 755.187C731.578 755.395 725.219 754.33 719.56 751.994C713.901 749.606 709.411 745.92 706.088 740.936C702.817 735.952 701.208 729.723 701.26 722.247V605.282ZM786.225 753.552V633.939H795.492V652.005H796.426C798.71 645.983 802.656 641.207 808.263 637.677C813.87 634.146 820.619 632.381 828.51 632.381C837.18 632.381 844.162 634.458 849.458 638.611C854.805 642.764 858.647 648.397 860.983 655.51H861.839C864.176 648.501 868.355 642.894 874.377 638.689C880.451 634.484 887.927 632.381 896.804 632.381C908.382 632.381 917.207 636.041 923.281 643.361C929.407 650.63 932.47 660.597 932.47 673.265V753.552H922.97V673.265C922.97 663.297 920.582 655.458 915.805 649.747C911.029 644.036 904.021 641.181 894.78 641.181C884.916 641.181 877.336 644.27 872.041 650.448C866.745 656.626 864.098 664.491 864.098 674.043V753.552H854.597V672.642C854.597 663.349 852.261 655.795 847.589 649.981C842.916 644.114 835.908 641.181 826.563 641.181C820.229 641.181 814.752 642.635 810.132 645.542C805.563 648.449 802.007 652.447 799.463 657.534C796.971 662.622 795.725 668.462 795.725 675.056V753.552H786.225ZM976.747 753.552V633.939H986.169V753.552H976.747ZM981.497 612.757C979.42 612.757 977.603 612.031 976.046 610.577C974.54 609.123 973.787 607.358 973.787 605.282C973.787 603.205 974.54 601.44 976.046 599.986C977.551 598.533 979.368 597.806 981.497 597.806C983.573 597.806 985.365 598.533 986.87 599.986C988.428 601.44 989.206 603.205 989.206 605.282C989.206 607.358 988.453 609.123 986.948 610.577C985.442 612.031 983.625 612.757 981.497 612.757ZM1071.39 756.044C1061.78 756.044 1053.4 753.396 1046.23 748.101C1039.07 742.805 1033.51 735.511 1029.57 726.218C1025.68 716.874 1023.73 706.153 1023.73 694.057C1023.73 682.064 1025.7 671.422 1029.65 662.129C1033.64 652.784 1039.23 645.464 1046.39 640.169C1053.55 634.821 1061.91 632.148 1071.47 632.148C1078.32 632.148 1084.26 633.472 1089.3 636.119C1094.39 638.715 1098.64 642.167 1102.07 646.476C1105.55 650.785 1108.2 655.51 1110.01 660.649H1110.95V594.068H1120.37V753.552H1111.18V727.464H1110.01C1108.09 732.604 1105.42 737.354 1101.99 741.715C1098.56 746.024 1094.31 749.502 1089.22 752.15C1084.13 754.746 1078.19 756.044 1071.39 756.044ZM1072.24 747.244C1080.34 747.244 1087.27 744.934 1093.04 740.313C1098.85 735.641 1103.29 729.307 1106.35 721.312C1109.47 713.265 1111.02 704.154 1111.02 693.979C1111.02 683.803 1109.47 674.744 1106.35 666.801C1103.29 658.806 1098.85 652.524 1093.04 647.956C1087.27 643.335 1080.34 641.025 1072.24 641.025C1064.04 641.025 1057.01 643.361 1051.14 648.034C1045.33 652.654 1040.86 658.962 1037.75 666.957C1034.68 674.952 1033.15 683.959 1033.15 693.979C1033.15 703.999 1034.68 713.032 1037.75 721.079C1040.86 729.126 1045.33 735.511 1051.14 740.235C1057.01 744.908 1064.04 747.244 1072.24 747.244ZM1167.97 753.552V633.939H1177.4V753.552H1167.97ZM1172.72 612.757C1170.65 612.757 1168.83 612.031 1167.27 610.577C1165.77 609.123 1165.02 607.358 1165.02 605.282C1165.02 603.205 1165.77 601.44 1167.27 599.986C1168.78 598.533 1170.6 597.806 1172.72 597.806C1174.8 597.806 1176.59 598.533 1178.1 599.986C1179.66 601.44 1180.43 603.205 1180.43 605.282C1180.43 607.358 1179.68 609.123 1178.18 610.577C1176.67 612.031 1174.85 612.757 1172.72 612.757ZM1253.27 756.122C1246.37 756.122 1240.03 754.746 1234.27 751.994C1228.56 749.243 1223.96 745.219 1220.49 739.924C1217.06 734.629 1215.35 728.191 1215.35 720.611C1215.35 715.628 1216.23 711.241 1217.99 707.451C1219.76 703.661 1222.48 700.39 1226.17 697.639C1229.86 694.887 1234.58 692.629 1240.34 690.864C1246.11 689.047 1252.99 687.645 1260.98 686.659C1267.05 685.932 1272.48 685.231 1277.26 684.556C1282.03 683.829 1285.77 682.713 1288.47 681.208C1291.22 679.702 1292.6 677.418 1292.6 674.355V669.371C1292.6 660.649 1289.84 653.719 1284.34 648.579C1278.84 643.439 1271.26 640.869 1261.6 640.869C1253.04 640.869 1245.82 642.764 1239.95 646.554C1234.14 650.292 1230.06 655.12 1227.73 661.039L1218.77 657.69C1221.06 651.979 1224.35 647.229 1228.66 643.439C1233.02 639.649 1238.01 636.82 1243.61 634.951C1249.27 633.082 1255.19 632.148 1261.37 632.148C1266.72 632.148 1271.8 632.9 1276.63 634.406C1281.51 635.912 1285.85 638.196 1289.64 641.259C1293.48 644.322 1296.52 648.241 1298.75 653.018C1300.98 657.742 1302.1 663.401 1302.1 669.994V753.552H1292.6V731.981H1291.9C1289.82 736.446 1286.96 740.521 1283.33 744.207C1279.75 747.841 1275.41 750.748 1270.32 752.929C1265.29 755.057 1259.6 756.122 1253.27 756.122ZM1254.21 747.322C1261.68 747.322 1268.3 745.505 1274.06 741.871C1279.88 738.185 1284.42 733.149 1287.69 726.763C1290.96 720.378 1292.6 713.136 1292.6 705.037V687.438C1291.4 688.476 1289.66 689.41 1287.38 690.241C1285.15 691.02 1282.6 691.721 1279.75 692.344C1276.94 692.915 1273.98 693.434 1270.87 693.901C1267.81 694.316 1264.82 694.706 1261.91 695.069C1253.19 696.107 1246.08 697.717 1240.58 699.897C1235.13 702.026 1231.13 704.829 1228.58 708.308C1226.09 711.786 1224.85 715.991 1224.85 720.923C1224.85 729.074 1227.65 735.511 1233.26 740.235C1238.86 744.96 1245.85 747.322 1254.21 747.322Z" fill="white"></path>
</svg>