<svg width="1899" height="336" viewBox="0 0 1899 336" fill="none" xmlns="http://www.w3.org/2000/svg">
<path d="M581.974 146.581L535.288 277.678H501.148L454.462 146.581H487.407L517.536 243.965H518.901L549.115 146.581H581.974ZM642.13 280.324C633.823 280.324 626.341 278.844 619.683 275.886C613.083 272.87 607.848 268.432 603.979 262.571C600.167 256.71 598.261 249.484 598.261 240.892C598.261 233.495 599.626 227.379 602.357 222.542C605.089 217.706 608.816 213.837 613.538 210.935C618.261 208.033 623.581 205.842 629.499 204.363C635.473 202.827 641.647 201.717 648.019 201.034C655.701 200.238 661.931 199.526 666.711 198.901C671.49 198.218 674.961 197.194 677.123 195.828C679.343 194.405 680.452 192.215 680.452 189.256V188.744C680.452 182.314 678.546 177.336 674.734 173.808C670.921 170.28 665.431 168.516 658.261 168.516C650.694 168.516 644.691 170.166 640.253 173.466C635.871 176.767 632.912 180.664 631.376 185.159L602.528 181.063C604.804 173.097 608.559 166.439 613.794 161.091C619.029 155.685 625.43 151.645 632.998 148.971C640.565 146.24 648.93 144.874 658.091 144.874C664.406 144.874 670.694 145.614 676.953 147.093C683.212 148.573 688.93 151.02 694.108 154.434C699.286 157.791 703.44 162.371 706.569 168.175C709.755 173.979 711.349 181.233 711.349 189.939V277.678H681.647V259.669H680.623C678.745 263.311 676.099 266.725 672.685 269.911C669.328 273.041 665.089 275.573 659.968 277.507C654.904 279.385 648.958 280.324 642.13 280.324ZM650.153 257.621C656.355 257.621 661.732 256.398 666.284 253.951C670.836 251.447 674.335 248.147 676.782 244.05C679.286 239.954 680.537 235.487 680.537 230.65V215.202C679.57 215.999 677.92 216.739 675.587 217.421C673.311 218.104 670.751 218.702 667.906 219.214C665.061 219.726 662.244 220.181 659.456 220.579C656.668 220.978 654.25 221.319 652.201 221.603C647.593 222.229 643.467 223.254 639.826 224.676C636.184 226.099 633.311 228.09 631.206 230.65C629.1 233.154 628.048 236.397 628.048 240.38C628.048 246.07 630.124 250.366 634.278 253.268C638.432 256.17 643.723 257.621 650.153 257.621ZM747.223 277.678V146.581H777.18V168.431H778.546C780.936 160.863 785.032 155.031 790.836 150.934C796.697 146.781 803.382 144.704 810.893 144.704C812.6 144.704 814.506 144.789 816.612 144.96C818.774 145.074 820.566 145.273 821.989 145.557V173.979C820.68 173.523 818.603 173.125 815.758 172.784C812.97 172.385 810.267 172.186 807.65 172.186C802.017 172.186 796.953 173.41 792.458 175.856C788.02 178.246 784.52 181.575 781.96 185.842C779.399 190.11 778.119 195.031 778.119 200.608V277.678H747.223ZM847.322 277.678V146.581H878.218V277.678H847.322ZM862.856 127.975C857.962 127.975 853.752 126.354 850.224 123.11C846.696 119.81 844.932 115.856 844.932 111.247C844.932 106.581 846.696 102.626 850.224 99.3832C853.752 96.083 857.962 94.4329 862.856 94.4329C867.806 94.4329 872.016 96.083 875.487 99.3832C879.015 102.626 880.779 106.581 880.779 111.247C880.779 115.856 879.015 119.81 875.487 123.11C872.016 126.354 867.806 127.975 862.856 127.975ZM952.521 280.324C944.214 280.324 936.731 278.844 930.074 275.886C923.474 272.87 918.239 268.432 914.37 262.571C910.558 256.71 908.652 249.484 908.652 240.892C908.652 233.495 910.017 227.379 912.748 222.542C915.479 217.706 919.206 213.837 923.929 210.935C928.652 208.033 933.972 205.842 939.889 204.363C945.864 202.827 952.037 201.717 958.41 201.034C966.092 200.238 972.322 199.526 977.102 198.901C981.881 198.218 985.352 197.194 987.514 195.828C989.733 194.405 990.843 192.215 990.843 189.256V188.744C990.843 182.314 988.937 177.336 985.125 173.808C981.312 170.28 975.821 168.516 968.652 168.516C961.084 168.516 955.082 170.166 950.643 173.466C946.262 176.767 943.303 180.664 941.767 185.159L912.919 181.063C915.195 173.097 918.95 166.439 924.185 161.091C929.42 155.685 935.821 151.645 943.389 148.971C950.956 146.24 959.321 144.874 968.481 144.874C974.797 144.874 981.085 145.614 987.344 147.093C993.603 148.573 999.321 151.02 1004.5 154.434C1009.68 157.791 1013.83 162.371 1016.96 168.175C1020.15 173.979 1021.74 181.233 1021.74 189.939V277.678H992.038V259.669H991.014C989.136 263.311 986.49 266.725 983.076 269.911C979.719 273.041 975.48 275.573 970.359 277.507C965.295 279.385 959.349 280.324 952.521 280.324ZM960.544 257.621C966.746 257.621 972.123 256.398 976.675 253.951C981.227 251.447 984.726 248.147 987.173 244.05C989.677 239.954 990.928 235.487 990.928 230.65V215.202C989.961 215.999 988.311 216.739 985.978 217.421C983.702 218.104 981.142 218.702 978.297 219.214C975.452 219.726 972.635 220.181 969.847 220.579C967.059 220.978 964.641 221.319 962.592 221.603C957.983 222.229 953.858 223.254 950.217 224.676C946.575 226.099 943.702 228.09 941.596 230.65C939.491 233.154 938.438 236.397 938.438 240.38C938.438 246.07 940.515 250.366 944.669 253.268C948.823 256.17 954.114 257.621 960.544 257.621ZM1088.51 200.864V277.678H1057.61V146.581H1087.14V168.858H1088.68C1091.7 161.518 1096.5 155.685 1103.1 151.361C1109.76 147.037 1117.98 144.874 1127.77 144.874C1136.82 144.874 1144.7 146.809 1151.41 150.678C1158.18 154.547 1163.42 160.152 1167.12 167.492C1170.87 174.832 1172.72 183.737 1172.66 194.206V277.678H1141.77V198.986C1141.77 190.223 1139.49 183.367 1134.94 178.417C1130.44 173.466 1124.21 170.991 1116.25 170.991C1110.84 170.991 1106.03 172.186 1101.82 174.576C1097.67 176.909 1094.4 180.294 1092.01 184.733C1089.68 189.171 1088.51 194.548 1088.51 200.864ZM1274.34 146.581V170.479H1198.98V146.581H1274.34ZM1217.59 115.173H1248.48V238.247C1248.48 242.4 1249.11 245.587 1250.36 247.806C1251.67 249.968 1253.38 251.447 1255.48 252.244C1257.59 253.04 1259.92 253.439 1262.48 253.439C1264.41 253.439 1266.18 253.297 1267.77 253.012C1269.42 252.728 1270.67 252.471 1271.53 252.244L1276.73 276.398C1275.08 276.967 1272.72 277.593 1269.65 278.275C1266.63 278.958 1262.93 279.357 1258.55 279.47C1250.81 279.698 1243.84 278.531 1237.64 275.971C1231.44 273.354 1226.52 269.314 1222.88 263.851C1219.29 258.389 1217.53 251.561 1217.59 243.368V115.173ZM1310.71 277.678V146.581H1320.86V166.382H1321.89C1324.39 159.782 1328.72 154.547 1334.86 150.678C1341.01 146.809 1348.4 144.874 1357.05 144.874C1366.55 144.874 1374.21 147.15 1380.01 151.702C1385.87 156.254 1390.08 162.428 1392.64 170.223H1393.58C1396.14 162.542 1400.72 156.397 1407.32 151.788C1413.98 147.179 1422.17 144.874 1431.9 144.874C1444.59 144.874 1454.27 148.886 1460.92 156.909C1467.64 164.875 1470.99 175.799 1470.99 189.683V277.678H1460.58V189.683C1460.58 178.758 1457.96 170.166 1452.73 163.907C1447.49 157.648 1439.81 154.519 1429.68 154.519C1418.87 154.519 1410.57 157.904 1404.76 164.675C1398.96 171.446 1396.06 180.067 1396.06 190.536V277.678H1385.64V189C1385.64 178.815 1383.08 170.536 1377.96 164.163C1372.84 157.734 1365.16 154.519 1354.92 154.519C1347.98 154.519 1341.97 156.112 1336.91 159.298C1331.9 162.485 1328.01 166.866 1325.22 172.442C1322.49 178.018 1321.12 184.42 1321.12 191.646V277.678H1310.71ZM1519.52 277.678V146.581H1529.85V277.678H1519.52ZM1524.73 123.366C1522.45 123.366 1520.46 122.57 1518.75 120.977C1517.1 119.383 1516.28 117.449 1516.28 115.173C1516.28 112.897 1517.1 110.962 1518.75 109.369C1520.4 107.776 1522.39 106.979 1524.73 106.979C1527 106.979 1528.97 107.776 1530.62 109.369C1532.32 110.962 1533.18 112.897 1533.18 115.173C1533.18 117.449 1532.35 119.383 1530.7 120.977C1529.05 122.57 1527.06 123.366 1524.73 123.366ZM1623.25 280.409C1612.72 280.409 1603.53 277.507 1595.68 271.704C1587.83 265.9 1581.74 257.905 1577.41 247.72C1573.15 237.478 1571.01 225.729 1571.01 212.471C1571.01 199.327 1573.18 187.663 1577.5 177.478C1581.88 167.236 1588 159.213 1595.85 153.409C1603.7 147.549 1612.86 144.618 1623.33 144.618C1630.84 144.618 1637.36 146.069 1642.88 148.971C1648.45 151.816 1653.12 155.6 1656.88 160.323C1660.69 165.045 1663.59 170.223 1665.58 175.856H1666.61V102.882H1676.93V277.678H1666.86V249.086H1665.58C1663.48 254.719 1660.55 259.925 1656.79 264.705C1653.03 269.428 1648.37 273.24 1642.79 276.142C1637.22 278.987 1630.7 280.409 1623.25 280.409ZM1624.19 270.765C1633.06 270.765 1640.66 268.233 1646.97 263.169C1653.35 258.048 1658.21 251.106 1661.57 242.343C1664.98 233.524 1666.69 223.538 1666.69 212.386C1666.69 201.233 1664.98 191.304 1661.57 182.599C1658.21 173.836 1653.35 166.951 1646.97 161.944C1640.66 156.88 1633.06 154.348 1624.19 154.348C1615.2 154.348 1607.49 156.909 1601.06 162.03C1594.68 167.094 1589.79 174.007 1586.38 182.769C1583.02 191.532 1581.34 201.404 1581.34 212.386C1581.34 223.367 1583.02 233.268 1586.38 242.087C1589.79 250.907 1594.68 257.905 1601.06 263.083C1607.49 268.204 1615.2 270.765 1624.19 270.765ZM1729.11 277.678V146.581H1739.44V277.678H1729.11ZM1734.31 123.366C1732.04 123.366 1730.05 122.57 1728.34 120.977C1726.69 119.383 1725.86 117.449 1725.86 115.173C1725.86 112.897 1726.69 110.962 1728.34 109.369C1729.99 107.776 1731.98 106.979 1734.31 106.979C1736.59 106.979 1738.55 107.776 1740.2 109.369C1741.91 110.962 1742.76 112.897 1742.76 115.173C1742.76 117.449 1741.94 119.383 1740.29 120.977C1738.64 122.57 1736.65 123.366 1734.31 123.366ZM1822.59 280.495C1815.03 280.495 1808.08 278.987 1801.77 275.971C1795.51 272.955 1790.47 268.546 1786.66 262.742C1782.91 256.938 1781.03 249.883 1781.03 241.575C1781.03 236.113 1782 231.305 1783.93 227.151C1785.86 222.997 1788.85 219.413 1792.89 216.397C1796.93 213.381 1802.11 210.906 1808.42 208.972C1814.74 206.98 1822.28 205.444 1831.04 204.363C1837.7 203.566 1843.65 202.798 1848.88 202.058C1854.12 201.262 1858.21 200.039 1861.17 198.388C1864.19 196.738 1865.69 194.235 1865.69 190.878V185.415C1865.69 175.856 1862.68 168.26 1856.65 162.627C1850.62 156.994 1842.31 154.177 1831.73 154.177C1822.34 154.177 1814.43 156.254 1808 160.408C1801.63 164.505 1797.16 169.796 1794.6 176.283L1784.78 172.613C1787.29 166.354 1790.9 161.148 1795.62 156.994C1800.4 152.84 1805.86 149.739 1812.01 147.691C1818.21 145.643 1824.7 144.618 1831.47 144.618C1837.33 144.618 1842.91 145.443 1848.2 147.093C1853.55 148.744 1858.3 151.247 1862.45 154.604C1866.66 157.961 1869.99 162.257 1872.44 167.492C1874.88 172.67 1876.11 178.872 1876.11 186.098V277.678H1865.69V254.036H1864.93C1862.65 258.93 1859.52 263.396 1855.54 267.436C1851.61 271.419 1846.86 274.605 1841.28 276.995C1835.77 279.328 1829.53 280.495 1822.59 280.495ZM1823.62 270.85C1831.81 270.85 1839.07 268.859 1845.38 264.876C1851.75 260.836 1856.73 255.316 1860.32 248.318C1863.9 241.319 1865.69 233.382 1865.69 224.505V205.216C1864.39 206.354 1862.48 207.379 1859.98 208.289C1857.53 209.142 1854.74 209.911 1851.61 210.593C1848.54 211.219 1845.3 211.788 1841.88 212.3C1838.52 212.756 1835.25 213.182 1832.07 213.581C1822.51 214.719 1814.71 216.482 1808.68 218.872C1802.71 221.205 1798.33 224.278 1795.54 228.09C1792.81 231.902 1791.44 236.511 1791.44 241.917C1791.44 250.85 1794.51 257.905 1800.66 263.083C1806.8 268.261 1814.46 270.85 1823.62 270.85Z" fill="#2B2B2B"/>
<path d="M353.849 0L177.949 189.647L0.000244141 0V89.2645L178.002 280.264L353.849 89.8622V0Z" fill="#16D4E8"/>
<path d="M354 143.742V296H219.809L354 143.742Z" fill="#2B2B2B"/>
<path d="M0 143.742V296H134.191L0 143.742Z" fill="#2B2B2B"/>
</svg>
