<svg width="1323" height="847" viewBox="0 0 1323 847" fill="none" xmlns="http://www.w3.org/2000/svg">
<path d="M976.844 0L663.247 333.898L346 0V157.162L663.342 493.443L976.844 158.215V0Z" fill="#16D4E8"/>
<path d="M977.113 253.078V521.148H737.877L977.113 253.078Z" fill="#2B2B2B"/>
<path d="M346 253.078V521.148H585.236L346 253.078Z" fill="#2B2B2B"/>
<path d="M121.326 673.576L78.7296 793.188H47.5804L4.98387 673.576H35.0429L62.532 762.429H63.778L91.3451 673.576H121.326ZM176.213 795.603C168.633 795.603 161.806 794.253 155.732 791.553C149.71 788.802 144.934 784.752 141.403 779.405C137.925 774.058 136.186 767.464 136.186 759.625C136.186 752.876 137.432 747.295 139.924 742.883C142.416 738.47 145.816 734.939 150.125 732.292C154.434 729.644 159.288 727.645 164.687 726.296C170.139 724.894 175.771 723.881 181.586 723.258C188.594 722.532 194.279 721.883 198.64 721.312C203.001 720.689 206.168 719.754 208.141 718.508C210.165 717.21 211.178 715.212 211.178 712.512V712.045C211.178 706.178 209.438 701.636 205.96 698.417C202.482 695.198 197.472 693.589 190.931 693.589C184.026 693.589 178.549 695.094 174.499 698.106C170.502 701.117 167.802 704.673 166.401 708.774L140.08 705.036C142.156 697.768 145.583 691.694 150.359 686.814C155.135 681.882 160.975 678.196 167.88 675.756C174.785 673.264 182.417 672.018 190.775 672.018C196.538 672.018 202.274 672.693 207.985 674.043C213.696 675.393 218.913 677.625 223.637 680.74C228.362 683.803 232.151 687.982 235.007 693.277C237.914 698.573 239.368 705.192 239.368 713.135V793.188H212.268V776.757H211.333C209.62 780.08 207.206 783.195 204.091 786.102C201.028 788.957 197.16 791.268 192.488 793.033C187.868 794.746 182.442 795.603 176.213 795.603ZM183.533 774.888C189.191 774.888 194.097 773.772 198.251 771.54C202.404 769.255 205.597 766.244 207.829 762.507C210.113 758.769 211.256 754.693 211.256 750.28V736.185C210.373 736.912 208.867 737.587 206.739 738.21C204.662 738.833 202.326 739.378 199.73 739.845C197.135 740.313 194.565 740.728 192.021 741.091C189.477 741.455 187.271 741.766 185.402 742.026C181.197 742.597 177.433 743.531 174.11 744.829C170.787 746.127 168.166 747.944 166.245 750.28C164.324 752.565 163.364 755.524 163.364 759.158C163.364 764.349 165.259 768.269 169.048 770.917C172.838 773.564 177.666 774.888 183.533 774.888ZM272.099 793.188V673.576H299.433V693.511H300.679C302.859 686.606 306.597 681.285 311.892 677.547C317.24 673.757 323.34 671.862 330.193 671.862C331.75 671.862 333.489 671.94 335.41 672.096C337.383 672.2 339.018 672.381 340.316 672.641V698.573C339.122 698.157 337.227 697.794 334.631 697.483C332.087 697.119 329.621 696.937 327.233 696.937C322.094 696.937 317.473 698.054 313.372 700.286C309.323 702.466 306.13 705.503 303.794 709.397C301.457 713.291 300.289 717.781 300.289 722.869V793.188H272.099ZM363.43 793.188V673.576H391.62V793.188H363.43ZM377.603 656.599C373.138 656.599 369.297 655.12 366.078 652.16C362.859 649.149 361.25 645.541 361.25 641.336C361.25 637.079 362.859 633.471 366.078 630.512C369.297 627.501 373.138 625.995 377.603 625.995C382.12 625.995 385.962 627.501 389.128 630.512C392.347 633.471 393.957 637.079 393.957 641.336C393.957 645.541 392.347 649.149 389.128 652.16C385.962 655.12 382.12 656.599 377.603 656.599ZM459.414 795.603C451.835 795.603 445.008 794.253 438.934 791.553C432.911 788.802 428.135 784.752 424.605 779.405C421.127 774.058 419.388 767.464 419.388 759.625C419.388 752.876 420.633 747.295 423.125 742.883C425.617 738.47 429.018 734.939 433.327 732.292C437.636 729.644 442.49 727.645 447.889 726.296C453.34 724.894 458.973 723.881 464.787 723.258C471.796 722.532 477.481 721.883 481.842 721.312C486.203 720.689 489.369 719.754 491.342 718.508C493.367 717.21 494.379 715.212 494.379 712.512V712.045C494.379 706.178 492.64 701.636 489.162 698.417C485.683 695.198 480.674 693.589 474.132 693.589C467.227 693.589 461.75 695.094 457.701 698.106C453.704 701.117 451.004 704.673 449.602 708.774L423.281 705.036C425.358 697.768 428.784 691.694 433.56 686.814C438.337 681.882 444.177 678.196 451.082 675.756C457.987 673.264 465.618 672.018 473.976 672.018C479.739 672.018 485.476 672.693 491.186 674.043C496.897 675.393 502.115 677.625 506.839 680.74C511.563 683.803 515.353 687.982 518.208 693.277C521.116 698.573 522.569 705.192 522.569 713.135V793.188H495.469V776.757H494.535C492.822 780.08 490.408 783.195 487.293 786.102C484.23 788.957 480.362 791.268 475.69 793.033C471.069 794.746 465.644 795.603 459.414 795.603ZM466.734 774.888C472.393 774.888 477.299 773.772 481.452 771.54C485.606 769.255 488.798 766.244 491.031 762.507C493.315 758.769 494.457 754.693 494.457 750.28V736.185C493.575 736.912 492.069 737.587 489.94 738.21C487.864 738.833 485.528 739.378 482.932 739.845C480.336 740.313 477.766 740.728 475.222 741.091C472.679 741.455 470.472 741.766 468.603 742.026C464.398 742.597 460.634 743.531 457.312 744.829C453.989 746.127 451.367 747.944 449.446 750.28C447.526 752.565 446.565 755.524 446.565 759.158C446.565 764.349 448.46 768.269 452.25 770.917C456.04 773.564 460.868 774.888 466.734 774.888ZM583.491 723.103V793.188H555.301V673.576H582.245V693.9H583.647C586.398 687.203 590.785 681.882 596.807 677.936C602.881 673.991 610.383 672.018 619.312 672.018C627.567 672.018 634.757 673.783 640.883 677.313C647.061 680.844 651.837 685.957 655.212 692.654C658.638 699.351 660.326 707.476 660.274 717.029V793.188H632.084V721.39C632.084 713.395 630.007 707.139 625.854 702.622C621.752 698.106 616.068 695.847 608.8 695.847C603.868 695.847 599.481 696.937 595.639 699.118C591.849 701.246 588.864 704.335 586.684 708.385C584.555 712.434 583.491 717.34 583.491 723.103ZM753.045 673.576V695.38H684.284V673.576H753.045ZM701.26 644.918H729.45V757.211C729.45 761.001 730.021 763.908 731.163 765.933C732.357 767.906 733.915 769.255 735.835 769.982C737.756 770.709 739.885 771.073 742.221 771.073C743.986 771.073 745.596 770.943 747.049 770.683C748.555 770.424 749.697 770.19 750.476 769.982L755.226 792.02C753.72 792.54 751.566 793.111 748.762 793.734C746.011 794.357 742.636 794.72 738.639 794.824C731.578 795.031 725.219 793.967 719.56 791.631C713.901 789.243 709.411 785.557 706.088 780.573C702.817 775.589 701.208 769.359 701.26 761.884V644.918ZM786.225 793.188V673.576H795.492V691.642H796.426C798.71 685.62 802.656 680.844 808.263 677.313C813.87 673.783 820.619 672.018 828.51 672.018C837.18 672.018 844.162 674.095 849.458 678.248C854.805 682.401 858.647 688.034 860.983 695.146H861.839C864.176 688.138 868.355 682.531 874.377 678.326C880.451 674.121 887.927 672.018 896.804 672.018C908.382 672.018 917.207 675.678 923.281 682.998C929.407 690.266 932.47 700.234 932.47 712.901V793.188H922.97V712.901C922.97 702.934 920.582 695.094 915.805 689.384C911.029 683.673 904.021 680.818 894.78 680.818C884.916 680.818 877.336 683.907 872.041 690.085C866.745 696.263 864.098 704.128 864.098 713.68V793.188H854.597V712.278C854.597 702.986 852.261 695.432 847.589 689.617C842.916 683.751 835.908 680.818 826.563 680.818C820.229 680.818 814.752 682.271 810.132 685.179C805.563 688.086 802.007 692.083 799.463 697.171C796.971 702.259 795.725 708.099 795.725 714.692V793.188H786.225ZM976.747 793.188V673.576H986.169V793.188H976.747ZM981.497 652.394C979.42 652.394 977.603 651.667 976.046 650.214C974.54 648.76 973.787 646.995 973.787 644.918C973.787 642.842 974.54 641.076 976.046 639.623C977.551 638.169 979.368 637.442 981.497 637.442C983.573 637.442 985.365 638.169 986.87 639.623C988.428 641.076 989.206 642.842 989.206 644.918C989.206 646.995 988.453 648.76 986.948 650.214C985.442 651.667 983.625 652.394 981.497 652.394ZM1071.39 795.68C1061.78 795.68 1053.4 793.033 1046.23 787.737C1039.07 782.442 1033.51 775.148 1029.57 765.855C1025.68 756.51 1023.73 745.79 1023.73 733.693C1023.73 721.701 1025.7 711.058 1029.65 701.766C1033.64 692.421 1039.23 685.101 1046.39 679.805C1053.55 674.458 1061.91 671.784 1071.47 671.784C1078.32 671.784 1084.26 673.108 1089.3 675.756C1094.39 678.352 1098.64 681.804 1102.07 686.113C1105.55 690.422 1108.2 695.146 1110.01 700.286H1110.95V633.705H1120.37V793.188H1111.18V767.101H1110.01C1108.09 772.241 1105.42 776.991 1101.99 781.352C1098.56 785.661 1094.31 789.139 1089.22 791.787C1084.13 794.383 1078.19 795.68 1071.39 795.68ZM1072.24 786.881C1080.34 786.881 1087.27 784.571 1093.04 779.95C1098.85 775.278 1103.29 768.944 1106.35 760.949C1109.47 752.902 1111.02 743.791 1111.02 733.616C1111.02 723.44 1109.47 714.381 1106.35 706.438C1103.29 698.443 1098.85 692.161 1093.04 687.593C1087.27 682.972 1080.34 680.662 1072.24 680.662C1064.04 680.662 1057.01 682.998 1051.14 687.671C1045.33 692.291 1040.86 698.599 1037.75 706.594C1034.68 714.589 1033.15 723.596 1033.15 733.616C1033.15 743.635 1034.68 752.669 1037.75 760.715C1040.86 768.762 1045.33 775.148 1051.14 779.872C1057.01 784.545 1064.04 786.881 1072.24 786.881ZM1167.97 793.188V673.576H1177.4V793.188H1167.97ZM1172.72 652.394C1170.65 652.394 1168.83 651.667 1167.27 650.214C1165.77 648.76 1165.02 646.995 1165.02 644.918C1165.02 642.842 1165.77 641.076 1167.27 639.623C1168.78 638.169 1170.6 637.442 1172.72 637.442C1174.8 637.442 1176.59 638.169 1178.1 639.623C1179.66 641.076 1180.43 642.842 1180.43 644.918C1180.43 646.995 1179.68 648.76 1178.18 650.214C1176.67 651.667 1174.85 652.394 1172.72 652.394ZM1253.27 795.758C1246.37 795.758 1240.03 794.383 1234.27 791.631C1228.56 788.88 1223.96 784.856 1220.49 779.561C1217.06 774.265 1215.35 767.828 1215.35 760.248C1215.35 755.264 1216.23 750.877 1217.99 747.088C1219.76 743.298 1222.48 740.027 1226.17 737.276C1229.86 734.524 1234.58 732.266 1240.34 730.501C1246.11 728.684 1252.99 727.282 1260.98 726.296C1267.05 725.569 1272.48 724.868 1277.26 724.193C1282.03 723.466 1285.77 722.35 1288.47 720.844C1291.22 719.339 1292.6 717.055 1292.6 713.992V709.008C1292.6 700.286 1289.84 693.355 1284.34 688.216C1278.84 683.076 1271.26 680.506 1261.6 680.506C1253.04 680.506 1245.82 682.401 1239.95 686.191C1234.14 689.929 1230.06 694.757 1227.73 700.675L1218.77 697.327C1221.06 691.616 1224.35 686.866 1228.66 683.076C1233.02 679.286 1238.01 676.457 1243.61 674.588C1249.27 672.719 1255.19 671.784 1261.37 671.784C1266.72 671.784 1271.8 672.537 1276.63 674.043C1281.51 675.548 1285.85 677.833 1289.64 680.896C1293.48 683.959 1296.52 687.878 1298.75 692.654C1300.98 697.379 1302.1 703.037 1302.1 709.631V793.188H1292.6V771.618H1291.9C1289.82 776.082 1286.96 780.158 1283.33 783.844C1279.75 787.478 1275.41 790.385 1270.32 792.565C1265.29 794.694 1259.6 795.758 1253.27 795.758ZM1254.21 786.959C1261.68 786.959 1268.3 785.142 1274.06 781.508C1279.88 777.822 1284.42 772.786 1287.69 766.4C1290.96 760.015 1292.6 752.772 1292.6 744.674V727.074C1291.4 728.113 1289.66 729.047 1287.38 729.878C1285.15 730.656 1282.6 731.357 1279.75 731.98C1276.94 732.551 1273.98 733.071 1270.87 733.538C1267.81 733.953 1264.82 734.342 1261.91 734.706C1253.19 735.744 1246.08 737.354 1240.58 739.534C1235.13 741.662 1231.13 744.466 1228.58 747.944C1226.09 751.423 1224.85 755.628 1224.85 760.56C1224.85 768.71 1227.65 775.148 1233.26 779.872C1238.86 784.596 1245.85 786.959 1254.21 786.959Z" fill="#2B2B2B"/>
</svg>
